<svg
                width="131"
                height="24"
                viewBox="0 0 131 24"
                fill="white"
                xmlns="http://www.w3.org/2000/svg"
              >
                <path d="M16.947 0h-15.58l-0.956 5.63h4.776l-0.956 5.691h-2.106l-2.125 12.674h6.194l2.125-12.674h2.106l0.956-5.691h4.61l0.956-5.63zM46.513 0h-6.194l-1.889 11.321h-2.106l-2.111 12.674h6.194l2.111-12.674h2.106l1.889-11.321zM60.702 11.303l-1.021-11.303h-8.245l-1.908 11.316h-2.111l-1.82 10.827-0.309 1.852h5.423l2.092-12.679 1.427 12.679h3.963l5.441-12.679-2.199 12.679h6.203l2.111-12.679h2.111l1.889-11.316h-8.268l-4.781 11.303zM92.282 0h-15.58l-0.956 5.63h4.776l-0.956 5.691h-2.106l-2.125 12.674h6.194l2.125-12.674h2.106l0.956-5.691h4.61l0.956-5.63zM31.871 11.321h2.106c0.406-0.679 0.734-1.52 0.924-2.559 0.106-0.591 0.166-1.247 0.166-1.977 0-0.42-0.023-0.808-0.065-1.178-0.037-0.309-0.088-0.6-0.148-0.882-0.152-0.693-0.388-1.279-0.679-1.783-1.691-2.933-5.344-2.938-6.97-2.938h-7.279l-1.908 11.316h-2.106l-2.129 12.679h6.194l1.492-8.91h1.169l2.166 8.91h6.6l-2.582-10.046c0.051-0.023 0.111-0.051 0.166-0.079 0.873-0.411 2.037-1.136 2.882-2.55zM25.164 5.63h1.709c1.252 0.125 1.885 0.808 1.76 1.843-0.065 0.54-0.171 0.961-0.309 1.289-0.536 1.279-1.575 1.136-2.822 1.136h-1.049l0.707-4.268zM96.203 18.6l0.794-4.73h7.007l0.439-2.55h2.111l0.443-2.554-7.030-0.005 0.531-3.132 8.61-0.005 0.915-5.626h-14.762l-1.903 11.321h-2.111l-2.129 12.674h14.901l0.924-5.39-8.739-0.005zM121.229 11.321h2.111l7.589-11.321h-6.448l-3.423 5.607h-0.032l-1.492-5.607h-6.818l4 11.316v0.005h-2.106l-8.554 12.674h6.619l4.222-6.975 1.908 6.975h6.91l-4.485-12.674z"></path>
              </svg>