<?xml version="1.0" encoding="utf-8"?>
<!-- Generator: Adobe Illustrator 23.0.2, SVG Export Plug-In . SVG Version: 6.00 Build 0)  -->
<svg version="1.1" id="Layer_1" xmlns="http://www.w3.org/2000/svg" xmlns:xlink="http://www.w3.org/1999/xlink" x="0px" y="0px"
	 viewBox="0 0 4045.6 4057.6" style="enable-background:new 0 0 4045.6 4057.6;" xml:space="preserve">
<style type="text/css">
	.st0{fill:#A41E21;}
	.st1{fill:#103559;}
	.st2{fill:#EFE3CA;}
	.st3{fill:#D2974E;}
</style>
<path class="st0" d="M2120.2,3542.9c-15.2-20.9-34.8-31-58.9-30.2c-24.1,0.7-43.1,12.1-57.2,34.2c-14.1,22.1-20.4,54.9-19.1,98.5
	c1.3,42.9,9.9,75.2,25.7,96.8c15.8,21.7,35.4,32.1,58.6,31.4c23.3-0.7,42-12.3,56.3-34.7c14.3-22.4,20.7-55.6,19.3-99.5
	C2143.6,3595.9,2135.4,3563.8,2120.2,3542.9z"/>
<path class="st1" d="M2153.7,1661.9c32-38.5,53.5-71.6,63.9-98.4c4.7-12,4.1-23.1,2.6-25.4c-5.9-8.6-14.4-13.4-22.7-12.7
	c-2.4,0.2-4.8,0.4-7.1,0.4c-8,0.1-15.9,0.1-23.9,0.1c-3.8,0-7.7,0-11.5,0h-165.3v263.7c36.8-22,68.9-42.4,98.3-65
	C2113.3,1704.9,2135.5,1683.8,2153.7,1661.9z"/>
<path class="st0" d="M2712.4,3438c8.3-5.8,13.4-13.3,15.3-22.5c1.9-9.2,0.1-19.4-5.2-30.4c-5.1-10.5-11.5-18-19.2-22.4
	c-7.6-4.4-16.2-5.2-25.6-2.3c-5.6,1.8-20.7,8.7-45.5,20.7l-30.2,14.7l38.4,78.8l34.4-16.8C2695.3,3447.8,2707.8,3441.2,2712.4,3438z
	"/>
<path class="st0" d="M2426.5,3477.4c-7-6.3-15.3-9.4-25-9c-4.8,0.3-18.7,3.4-41.7,9.1l-44.2,11.1l23.4,93.2l41.9-10.5
	c27.2-6.8,43.8-12.6,49.8-17.3c6-4.7,10-11.2,12-19.5c2-8.3,1.6-18-1.2-29C2438.5,3493.1,2433.5,3483.8,2426.5,3477.4z"/>
<path class="st0" d="M840.3,3075.9c6.8,3.4,14.4,4.2,22.8,2.4c8.4-1.8,16.9-6.3,25.7-13.6c9.8-8.1,16.1-16.7,18.8-25.7
	c2.7-9,1.8-17.8-2.6-26.4c-2.4-4.2-11.1-15.4-26.2-33.7l-29.1-35.1l-74,61.4l27.6,33.3C821.1,3060.1,833.4,3072.6,840.3,3075.9z"/>
<path class="st0" d="M601.7,2847.8c-0.5-8.7-7-24.8-19.5-48.3l-22.1-41.7l-89.5,47.4L496,2853c9.9,18.6,16.8,30.1,20.8,34.3
	c5.9,6.7,13.7,10.6,23.3,11.7c9.6,1.1,20.4-1.5,32.3-7.8c10-5.3,17.6-11.7,22.6-19.1C600,2864.6,602.3,2856.5,601.7,2847.8z"/>
<path class="st1" d="M2019.9,3303.4c701.5,0,1272.2-570.7,1272.2-1272.2c0-701.5-570.7-1272.2-1272.2-1272.2
	S747.7,1329.7,747.7,2031.2C747.7,2732.7,1318.4,3303.4,2019.9,3303.4z M2567.5,1466.2h481.8l95.3,255.3l-298.8-12.8v161.1H3118
	v250.8h-272.1v562.6h-278.4V1466.2z M1725.8,1242.5h263.9v1.3h240l17.2,4.4c86.4,22,159.1,68.2,204.8,129.9
	c59.5,80.3,69.7,182.4,28.8,287.6c-21.8,55.9-57.7,113.6-109.8,176.3c-22.9,27.6-48.9,54-77.5,78.7
	c164.2,248.1,235.5,442.5,245.4,666.8c5.7,129.8-42.8,209-84.5,252.6c-83.8,87.5-192.2,92-213.1,92h-375.8v-0.3h-139.4V1242.5z
	 M1040.9,1459.3l225.6-3l141.5,348.3l1.5-342.8l234.6-0.4l3.2,1230.4h-229l-141.1-377v376.2h-238.6L1040.9,1459.3z"/>
<path class="st1" d="M2256.9,2600c-6.5-147.3-42.5-287.2-198.9-523.7c-10,5.9-19.3,11.5-28.5,17.1l-39.8,35.8v521.1h247.5
	c3.4-0.5,9.6-2.2,12.6-4.5C2252.6,2643.5,2258.2,2629.4,2256.9,2600z"/>
<path class="st0" d="M2783.4,3500.3c-7.3-5.3-15.3-7.8-24-7.6c-8.7,0.2-25.1,6.2-49,17.8l-42.4,20.7l44.4,91.1l48.6-23.7
	c18.9-9.2,30.6-15.8,35-19.6c6.9-5.7,11.1-13.3,12.5-22.9c1.4-9.6-0.8-20.4-6.7-32.5C2796.8,3513.3,2790.7,3505.6,2783.4,3500.3z"/>
<path class="st0" d="M654.8,2799c6.1,8.1,13.7,12.9,23,14.5c9.3,1.5,19.4-0.5,30.2-6.3c10.4-5.5,17.6-12.1,21.8-19.9
	c4.2-7.8,4.6-16.4,1.5-25.7c-2-5.5-9.4-20.4-22.2-44.7l-15.7-29.7l-77.4,41l17.9,33.8C644.5,2782.2,651.5,2794.5,654.8,2799z"/>
<path class="st0" d="M1525.7,604.7c20.9,16.4,42.9,21.2,66,14.7c23.1-6.6,39.1-22.2,48.1-46.9c9-24.7,7.6-57.5-4-98.4
	c-11.5-40.4-27.3-68.6-47.4-84.4c-20.1-15.8-42.1-20.3-65.9-13.5c-23.9,6.8-40.3,22.4-49.1,46.7c-8.9,24.3-7.5,56.8,4,97.4
	C1488.7,560.2,1504.8,588.4,1525.7,604.7z"/>
<path class="st0" d="M1865.9,413.7c28.8-2,46.7-4.7,53.7-8.2c7-3.5,12.2-9,15.8-16.7c3.6-7.6,5-16.9,4.2-27.9
	c-0.9-12.3-4.2-22.1-10.1-29.3c-5.9-7.2-13.8-11.5-23.6-12.8c-4.9-0.5-19.6,0.1-43.9,1.8l-46.9,3.3l6.4,92.9L1865.9,413.7z"/>
<path class="st0" d="M3282.6,2786.9l-12.6,23l219.9,120.9l21-38.2c7.9-14.3,12.5-25.2,13.9-32.7c1.9-9.8,1-19.2-2.5-28.3
	c-3.5-9-11.7-19.4-24.7-31c-13-11.6-32.3-24.5-58-38.6c-25.7-14.1-46.3-23.2-62-27.3c-15.6-4.1-29-5.2-40.1-3.2
	c-11.1,2-20.7,7-28.7,15.1C3302.8,2752.6,3294,2766.1,3282.6,2786.9z"/>
<path class="st0" d="M2019.9,125.4c-1050.8,0-1905.7,854.9-1905.7,1905.7c0,1050.8,854.9,1905.7,1905.7,1905.7
	c1050.8,0,1905.7-854.9,1905.7-1905.7C3925.7,980.4,3070.8,125.4,2019.9,125.4z M2700.4,723.7c3.7,15.2,13.5,27.4,29.3,36.5
	c16.8,9.7,32,12.6,45.6,8.8c13.6-3.8,23.7-11.6,30.5-23.3c4.3-7.5,6.2-14.9,5.7-22.3c-0.5-7.3-4.2-15.5-10.8-24.6
	c-4.6-6.1-15.9-18.8-33.8-38c-23.1-24.6-36.7-46.4-40.8-65.4c-5.8-26.6-1.4-52.5,13.1-77.7c9.3-16.2,21.8-29.2,37.4-39
	c15.6-9.8,32.5-14.3,50.8-13.6c18.3,0.7,37.4,6.8,57.2,18.2c32.4,18.7,51.8,41.5,58.1,68.5c6.3,26.9,1.5,55.3-14.5,84.9l-53.8-27.3
	c7.2-17.6,9.2-32.1,5.9-43.5c-3.2-11.4-12.2-21.3-26.9-29.8c-15.2-8.7-29.2-11.7-42.2-9c-8.4,1.7-14.9,6.7-19.7,15
	c-4.3,7.5-5.5,15.4-3.4,23.8c2.7,10.6,14.6,26.9,35.7,48.9c21.1,22,35.5,40.5,43.2,55.3c7.6,14.9,10.9,31.2,9.9,48.8
	c-1,17.6-7.3,36.5-18.9,56.6c-10.5,18.2-24.4,32.9-41.8,44.1c-17.4,11.2-35.8,16.3-55.3,15.3c-19.5-0.9-40.5-7.9-62.9-20.8
	c-32.7-18.8-52.4-42.6-59.2-71.2c-6.8-28.7-1.7-61.8,15.4-99.3l54.3,23.2C2699.4,689.5,2696.7,708.5,2700.4,723.7z M2483.3,317.7
	l208.8,73.2l-20.5,58.6l-151.9-53.3l-26.9,76.8l141.3,49.6l-20.5,58.3l-141.3-49.6l-33,94.3l157.3,55.1l-20.5,58.3L2361.9,664
	L2483.3,317.7z M2073.8,431.4c5.2-37.9,16.3-70.6,33.2-98.3c16.9-27.7,38.9-47.6,65.9-59.9c20.6-9.5,45-12.3,73.3-8.4
	c36.7,5,64.1,18.4,82.1,40.2c18,21.8,27.7,49.7,29.1,83.9l-61.1,5.5c-1.7-18.4-7.6-33.6-17.7-45.5c-10.1-11.9-23.7-19-40.9-21.4
	c-26.1-3.6-48.2,3.8-66.4,22c-18.2,18.2-30,47.3-35.5,87.4c-5.9,43.1-2.6,76.6,10.1,100.3c12.6,23.7,31.6,37.3,56.9,40.8
	c12.5,1.7,25.4,0.4,38.8-3.9c13.4-4.3,25.2-10.1,35.4-17.5l6.3-46.1l-68.3-9.4l8.4-61.3l128.6,17.6L2332,602.2
	c-14.5,13.2-34.5,23.8-59.7,31.9c-25.3,8.1-50.1,10.4-74.4,7.1c-30.9-4.2-56.8-15.9-77.6-35c-20.8-19.1-34.9-44.3-42.4-75.5
	C2070.4,499.3,2069,466.3,2073.8,431.4z M1877.1,257.4c31.8-2.2,55.1-0.5,70,5.1c14.9,5.6,27.2,16.5,37,32.7
	c9.8,16.2,15.5,35.1,17,56.8c1.9,27.5-3.1,50.6-15,69.4c-11.9,18.8-30.7,31.5-56.5,37.9c13.6,8.4,25.1,17.9,34.3,28.5
	c9.2,10.6,22,29.6,38.3,57.1l41.3,68.9l-71.9,5l-49-76.6c-17.4-27.4-29.2-44.6-35.4-51.6c-6.2-7-12.6-11.7-19.1-14
	c-6.6-2.3-16.7-3-30.5-2l-12.2,0.8l10.6,152.8l-60.1,4.2l-25.4-366.1L1877.1,257.4z M1405.6,445.4c1.4-19.8,5.7-38.5,12.9-56
	c7.2-17.5,16.6-31.6,28-42.3c15.2-14.4,34.5-24.9,57.9-31.6c42.3-12,80.7-5.5,115.3,19.5c34.6,25,60,66.3,76.4,123.7
	c16.2,57,16.3,105.1,0.3,144.5c-16,39.4-45.1,65-87.2,77c-42.7,12.1-81.2,5.8-115.5-19c-34.3-24.8-59.4-65.4-75.4-121.5
	C1408,503.7,1403.8,472.3,1405.6,445.4z M1108.5,488L1331,647.6L1216.4,431l49.5-26.2l171.5,324.4l-53.4,28.2l-218.2-155.4
	l111.8,211.6l-49.5,26.2l-171.5-324.4L1108.5,488z M1077,1088.3c251.9-251.9,586.7-390.6,942.9-390.6
	c356.2,0,691.1,138.7,942.9,390.6c251.9,251.9,390.6,586.7,390.6,942.9c0,356.2-138.7,691.1-390.6,942.9
	c-251.9,251.9-586.7,390.6-942.9,390.6c-356.2,0-691.1-138.7-942.9-390.6c-251.9-251.9-390.6-586.7-390.6-942.9
	C686.4,1675,825.1,1340.1,1077,1088.3z M488.2,1463.2c63.4,0,114.8,51.4,114.8,114.8c0,63.4-51.4,114.8-114.8,114.8
	s-114.8-51.4-114.8-114.8C373.4,1514.6,424.8,1463.2,488.2,1463.2z M502.5,2957.8c-13.6-4.8-25-13.5-34.2-26.2
	c-5.8-8-17.5-28.3-35.3-61.1l-46.1-87l334.8-177.4l54.2,102.2c10.7,20.2,17.6,35.9,20.7,47c3.1,11.1,3.2,22.5,0.3,34
	c-2.8,11.6-8.7,23-17.6,34.4c-8.9,11.4-20.5,20.9-35,28.6c-15.7,8.3-31.8,12.7-48.3,13.2c-16.5,0.5-31-3.1-43.4-10.6
	c2.3,18.7-1.5,36.1-11.3,52c-9.9,16-24.5,29.1-43.8,39.3c-15.2,8.1-31.5,13.2-48.7,15.4C531.5,2963.9,516.1,2962.6,502.5,2957.8z
	 M796.5,3160.8c-3.6,13.7-12.3,35.3-26.1,64.9l-34.3,74.4l-44.6-53.8l36.5-85.1c13.1-30.3,20.8-50.1,23.2-59.3
	c2.4-9.1,2.7-17,0.9-23.6c-1.8-6.6-6.9-15-15.5-25.4l-7.6-9.1l-121.8,101l-37.3-45L861.6,2858l78.5,94.7
	c19.7,23.8,31.5,43.3,35.2,58.4c3.7,15.1,1.5,31.5-6.5,49.1c-8,17.6-20.7,33.5-37.9,47.8c-21.9,18.1-44,28.2-66.4,30.2
	c-22.4,2-43.6-5.2-63.5-21.7C801.6,3132.3,800.1,3147.1,796.5,3160.8z M1157.5,3614.1l-50.7-29l156.3-273.3l-74.5-42.6l30-52.5
	l-220.7,99.6l-101.9,121.9l-44.7-37.4l102.3-122.3l59.4-236.3l52.6,43.9l-43.9,158.7l147.3-72.2l50.7,42.3l0.8-1.4l199.6,114.2
	l-31.8,55.6l-74.4-42.5L1157.5,3614.1z M1588.6,3546.5l-21.3,60.2l-136.9-48.6l-34.5,97.2l152.4,54.1l-21.3,60.2l-207.4-73.6
	l126.7-357.1l202.2,71.8l-21.4,60.4l-147.2-52.2l-28.1,79.2L1588.6,3546.5z M1878.5,3516l-138.1-22.7l-14.5,88.5l119.2,19.6
	l-10.4,63.3l-119.2-19.6l-26.1,158.9l-57.7-9.5l61.4-373.9l195.8,32.1L1878.5,3516z M2171.7,3784c-24.3,35.3-57.7,53.6-100.2,54.9
	c-43,1.3-77.7-14.8-104.2-48.4c-26.4-33.6-40.6-80.5-42.5-140.8c-1.2-38.6,2.2-71.1,10.2-97.5c6-19.5,14.4-37.1,25.3-52.7
	c10.9-15.7,23-27.4,36.3-35.3c17.7-10.5,38.3-16.2,61.9-16.9c42.6-1.3,77.2,15,103.9,48.8c26.6,33.8,40.9,81.6,42.8,143.2
	C2207.3,3700.4,2196,3748.7,2171.7,3784z M2520.3,3761.8l-61.1-69.7c-21.7-24.9-36.2-40.4-43.4-46.5c-7.2-6.1-14.2-9.8-20.9-11
	c-6.7-1.2-16.5-0.2-29.6,3l-11.5,2.9l38.6,153.4l-56.7,14.2l-92.4-367.5l119.3-30c30-7.5,52.6-9.7,67.9-6.5
	c15.2,3.2,29.1,12.2,41.5,27c12.4,14.8,21.3,33.1,26.8,54.8c6.9,27.6,6.5,51.9-1.4,73c-7.9,21.1-23.5,37.1-47,47.9
	c14.6,6.3,27.3,14,38.1,23.2c10.8,9.2,26.5,26.4,47.3,51.5l52.3,63.1L2520.3,3761.8z M2866,3595.6c-5.3,13.4-14.4,24.5-27.4,33.3
	c-8.1,5.5-28.9,16.6-62.2,33.2l-88.5,43.2l-166-340.6l104-50.7c20.6-10,36.5-16.4,47.7-19.1c11.2-2.7,22.5-2.4,34,0.8
	c11.5,3.2,22.7,9.5,33.8,18.7c11.1,9.3,20.2,21.2,27.4,36c7.8,16,11.6,32.2,11.6,48.7c-0.1,16.5-4.1,30.9-12.1,43
	c18.8-1.7,36,2.7,51.6,13.1c15.6,10.4,28.2,25.5,37.8,45.1c7.6,15.5,12.1,31.9,13.8,49.2C2873.1,3566.9,2871.3,3582.2,2866,3595.6z
	 M3144.8,3422.5c-6.6,14.8-18.9,29.1-37,43.2c-21.9,16.9-41,26.4-57.4,28.6c-16.4,2.1-32,0.4-46.7-5c-14.7-5.5-27.6-13.2-38.7-23.2
	c-16.3-14.8-37.4-39-63.4-72.5L2778,3233.6l46.2-35.8l125.6,162.3c19.9,25.8,33.4,42,40.5,48.7c11.5,10.7,23.8,16.9,37,18.6
	c13.2,1.7,26.2-2.5,39.1-12.5c13.1-10.1,20.3-21.3,21.5-33.5c1.2-12.2-1.4-23.9-8-35.2c-6.6-11.3-19-28.8-37.4-52.5l-128.3-165.8
	l46.2-35.8l121.8,157.4c27.8,36,46.3,62.4,55.3,79.1c9,16.8,14.1,32.9,15.3,48.3C3154,3392.6,3151.3,3407.7,3144.8,3422.5z
	 M3401.9,3168.8l-263.6-72.1l187.7,160.7l-35.3,41.2l-287.8-246.4l37-43.2l269.2,74.6l-192.2-164.5l35.3-41.2l287.8,246.4
	L3401.9,3168.8z M3531.6,1463.2c63.4,0,114.8,51.4,114.8,114.8c0,63.4-51.4,114.8-114.8,114.8c-63.4,0-114.8-51.4-114.8-114.8
	C3416.8,1514.6,3468.2,1463.2,3531.6,1463.2z M3471.7,2710.7c27.3,15,49.5,30.6,66.4,46.6c20.7,19.6,35.2,39.4,43.7,59.4
	c6.4,15.1,8.7,32,6.7,50.6c-1.5,13.9-7.5,30.3-17.9,49.2l-53,96.4l-332-182.5l51.5-93.6c11.6-21.1,22.6-36,32.9-44.8
	c13.9-11.7,31.1-18.9,51.6-21.4c20.5-2.6,42.9-0.8,67.1,5.4C3412.9,2682,3440.6,2693.6,3471.7,2710.7z"/>
<path class="st2" d="M1914.2,2883.1h326.8c17.4,0,107.7-3.7,177.7-76.8c35.1-36.7,75.9-104,70.9-216.6
	c-9.8-222.9-79.8-407.9-249.4-659.9l-12.5-18.6l17.4-14.1c32.9-26.7,62.4-55.8,87.8-86.4c48.7-58.6,82-111.9,101.8-162.8
	c34.6-88.9,26.6-174.4-22.5-240.7c-39.1-52.7-102.1-92.3-177.6-111.6l-11.2-2.9h-282.8v-1.3h-165.8v1591.2h139.4V2883.1z
	 M1940.6,1476.7H2155c3.9,0,7.9,0,11.8,0c7.6,0,15.1,0.1,22.7,0c1.2,0,2.5-0.1,3.8-0.2c25.9-2.2,51.4,10.7,67.3,33.7
	c14.3,20.8,10.8,50.3,2.7,71c-12.4,31.7-36.5,69.4-71.9,112c-20.6,24.8-45.3,48.3-73.6,70c-41.2,31.7-86,58.5-140.4,90.3l-36.9,21.6
	V1476.7z M1940.6,2107.2l59.5-53.4l1.9-1.2c15.9-9.7,32-19.2,51.1-30.4l19.9-11.6l12.9,19.1c173.7,257.6,213,408.4,220,568.1
	c1.9,43.2-7.1,72.6-26.8,87.3c-15.2,11.3-34.4,13.7-38.1,14l-1.2,0.1h-299.1V2107.2z"/>
<path class="st3" d="M2117.9,1763.2c28.2-21.7,53-45.3,73.6-70c35.4-42.6,59.5-80.2,71.9-112c8.1-20.7,11.6-50.3-2.7-71
	c-15.9-23-41.4-35.9-67.3-33.7c-1.3,0.1-2.6,0.2-3.8,0.2c-7.6,0.1-15.1,0.1-22.7,0c-3.9,0-7.9,0-11.8,0h-214.4v398.4l36.9-21.6
	C2031.8,1821.7,2076.6,1794.9,2117.9,1763.2z M1989.6,1525.7H2155c3.8,0,7.7,0,11.5,0c8,0,15.9,0.1,23.9-0.1c2.3,0,4.7-0.2,7.1-0.4
	c8.3-0.7,16.8,4.1,22.7,12.7c1.6,2.4,2.1,13.5-2.6,25.4c-10.4,26.8-31.9,59.9-63.9,98.4c-18.3,22-40.4,43-65.7,62.5
	c-29.5,22.7-61.6,43.1-98.3,65V1525.7z"/>
<path class="st3" d="M1865.1,2932.1h375.8c20.9,0,129.3-4.4,213.1-92c41.7-43.6,90.2-122.8,84.5-252.6
	c-9.9-224.3-81.3-418.7-245.4-666.8c28.6-24.7,54.6-51.1,77.5-78.7c52.1-62.7,88-120.4,109.8-176.3c41-105.2,30.7-207.4-28.8-287.6
	c-45.7-61.7-118.5-107.8-204.8-129.9l-17.2-4.4h-240v-1.3h-263.9v1689.3h139.4V2932.1z M1774.8,2882.8V1291.6h165.8v1.3h282.8
	l11.2,2.9c75.5,19.3,138.5,58.9,177.6,111.6c49.1,66.2,57.1,151.7,22.5,240.7c-19.8,50.9-53.1,104.2-101.8,162.8
	c-25.4,30.6-54.9,59.6-87.8,86.4l-17.4,14.1l12.5,18.6c169.6,252,239.5,437.1,249.4,659.9c5,112.5-35.8,179.9-70.9,216.6
	c-70,73.1-160.3,76.8-177.7,76.8h-326.8v-0.3H1774.8z"/>
<path class="st3" d="M2240.9,2699.1c3.7-0.4,22.9-2.7,38.1-14c19.7-14.7,28.7-44,26.8-87.3c-7-159.7-46.3-310.4-220-568.1
	l-12.9-19.1l-19.9,11.6c-19.2,11.2-35.2,20.7-51.1,30.4l-1.9,1.2l-59.5,53.4v592h299.1L2240.9,2699.1z M1989.6,2650.2v-521.1
	l39.8-35.8c9.2-5.6,18.5-11.1,28.5-17.1c156.4,236.4,192.4,376.4,198.9,523.7c1.3,29.4-4.2,43.5-7.1,45.8c-3,2.3-9.2,3.9-12.6,4.5
	H1989.6z"/>
<polygon class="st2" points="3069,1918.8 2796.8,1918.8 2796.8,1657.5 3072.9,1669.3 3015.3,1515.2 2616.5,1515.2 2616.5,2634.2 
	2796.8,2634.2 2796.8,2071.6 3069,2071.6 "/>
<path class="st3" d="M2845.9,2120.6H3118v-250.8h-272.1v-161.1l298.8,12.8l-95.3-255.3h-481.8v1217.1h278.4V2120.6z M2796.8,2634.2
	h-180.3v-1119h398.8l57.5,154.1l-276-11.8v261.3H3069v152.8h-272.1V2634.2z"/>
<polygon class="st2" points="1585.9,2627.7 1583,1524.2 1465.2,1524.7 1460.7,2123.9 1219.1,1509.7 1099.9,1510 1099.9,2640.5 
	1216,2640.5 1216,1975.2 1460.2,2627.7 "/>
<path class="st3" d="M1277.3,2314.9l141.1,377h229l-3.2-1230.4l-234.6,0.4l-1.5,342.8l-141.5-348.3l-225.6,3l-2.3,1231.7h238.6
	V2314.9z M1216,2640.5h-116.1V1510l119.2-0.3l241.5,614.1l4.5-599.2l117.8-0.5l2.9,1103.5h-125.7L1216,1975.2V2640.5z"/>
<path class="st3" d="M2019.9,3364.7c356.2,0,691.1-138.7,942.9-390.6c251.9-251.9,390.6-586.7,390.6-942.9
	c0-356.2-138.7-691.1-390.6-942.9c-251.9-251.9-586.7-390.6-942.9-390.6c-356.2,0-691.1,138.7-942.9,390.6
	c-251.9,251.9-390.6,586.7-390.6,942.9c0,356.2,138.7,691.1,390.6,942.9C1328.9,3226,1663.7,3364.7,2019.9,3364.7z M2019.9,759
	c701.5,0,1272.2,570.7,1272.2,1272.2c0,701.5-570.7,1272.2-1272.2,1272.2S747.7,2732.7,747.7,2031.2
	C747.7,1329.7,1318.4,759,2019.9,759z"/>
<path class="st3" d="M3410.8,640.3c-180.6-180.6-391-322.5-625.2-421.5c-242.5-102.6-500.1-154.6-765.7-154.6
	c-265.5,0-523.1,52-765.7,154.6C1020,317.8,809.7,459.6,629,640.3c-180.6,180.6-322.5,391-421.5,625.2
	C104.9,1508,52.9,1765.7,52.9,2031.2c0,265.5,52,523.1,154.6,765.7c99.1,234.2,240.9,444.6,421.5,625.2
	c180.6,180.6,391,322.5,625.2,421.5c242.5,102.6,500.1,154.6,765.7,154.6c265.5,0,523.1-52,765.7-154.6
	c234.2-99.1,444.6-240.9,625.2-421.5c180.6-180.6,322.5-391,421.5-625.2c102.6-242.5,154.6-500.1,154.6-765.7
	c0-265.5-52-523.1-154.6-765.7C3733.3,1031.3,3591.5,820.9,3410.8,640.3z M2019.9,3936.9c-1050.8,0-1905.7-854.9-1905.7-1905.7
	c0-1050.8,854.9-1905.7,1905.7-1905.7c1050.8,0,1905.7,854.9,1905.7,1905.7C3925.7,3082,3070.8,3936.9,2019.9,3936.9z"/>
<g>
	<polygon class="st3" points="1277.6,813.7 1165.8,602.1 1384,757.5 1437.4,729.2 1265.9,404.8 1216.4,431 1331,647.6 1108.5,488 
		1056.7,515.4 1228.2,839.9 	"/>
	<path class="st3" d="M1493.7,661.2c34.3,24.8,72.8,31.2,115.5,19c42.1-12,71.2-37.7,87.2-77c16-39.3,15.9-87.5-0.3-144.5
		c-16.4-57.5-41.8-98.7-76.4-123.7c-34.6-25-73-31.5-115.3-19.5c-23.4,6.6-42.6,17.2-57.9,31.6c-11.5,10.7-20.8,24.8-28,42.3
		c-7.2,17.5-11.5,36.2-12.9,56c-1.8,26.9,2.4,58.3,12.7,94.3C1434.3,595.8,1459.4,636.4,1493.7,661.2z M1473.2,422.9
		c8.9-24.3,25.3-39.9,49.1-46.7c23.9-6.8,45.9-2.3,65.9,13.5c20.1,15.8,35.9,43.9,47.4,84.4c11.7,40.9,13,73.7,4,98.4
		c-9,24.7-25,40.3-48.1,46.9c-23.1,6.6-45.1,1.7-66-14.7c-20.9-16.3-37-44.5-48.4-84.5C1465.7,479.7,1464.4,447.2,1473.2,422.9z"/>
	<path class="st3" d="M1836.1,628.1l-10.6-152.8l12.2-0.8c13.8-1,24-0.3,30.5,2c6.5,2.3,12.9,7,19.1,14c6.2,7,18,24.2,35.4,51.6
		l49,76.6l71.9-5l-41.3-68.9c-16.3-27.5-29.1-46.5-38.3-57.1c-9.2-10.6-20.7-20.1-34.3-28.5c25.8-6.5,44.6-19.1,56.5-37.9
		c11.9-18.8,16.9-41.9,15-69.4c-1.5-21.6-7.2-40.6-17-56.8c-9.8-16.2-22.2-27.1-37-32.7c-14.9-5.6-38.2-7.3-70-5.1l-126.5,8.8
		l25.4,366.1L1836.1,628.1z M1861.9,320.7c24.4-1.7,39-2.3,43.9-1.8c9.9,1.3,17.8,5.6,23.6,12.8c5.9,7.2,9.2,17,10.1,29.3
		c0.8,11-0.6,20.3-4.2,27.9c-3.6,7.6-8.8,13.2-15.8,16.7c-7,3.5-24.9,6.2-53.7,8.2l-44.5,3.1l-6.4-92.9L1861.9,320.7z"/>
	<path class="st3" d="M2120.3,606.1c20.8,19.1,46.7,30.8,77.6,35c24.3,3.3,49.1,1,74.4-7.1c25.3-8.1,45.2-18.7,59.7-31.9l19.8-144.8
		l-128.6-17.6l-8.4,61.3l68.3,9.4l-6.3,46.1c-10.2,7.4-22,13.2-35.4,17.5c-13.4,4.3-26.3,5.6-38.8,3.9
		c-25.3-3.5-44.2-17.1-56.9-40.8c-12.6-23.7-16-57.1-10.1-100.3c5.5-40,17.3-69.1,35.5-87.4c18.2-18.2,40.3-25.6,66.4-22
		c17.2,2.4,30.8,9.5,40.9,21.4c10.1,11.9,16,27.1,17.7,45.5l61.1-5.5c-1.3-34.2-11-62.2-29.1-83.9c-18-21.8-45.4-35.2-82.1-40.2
		c-28.2-3.9-52.6-1.1-73.3,8.4c-27,12.3-49,32.3-65.9,59.9c-16.9,27.7-28,60.4-33.2,98.3c-4.8,34.9-3.4,68,4.1,99.2
		C2085.3,561.9,2099.5,587,2120.3,606.1z"/>
	<polygon class="st3" points="2596.4,680.7 2439.2,625.6 2472.2,531.4 2613.6,580.9 2634,522.6 2492.7,473 2519.6,396.2 
		2671.5,449.5 2692,390.9 2483.3,317.7 2361.9,664 2576,739.1 	"/>
	<path class="st3" d="M2654.1,643.6c-17.1,37.5-22.2,70.6-15.4,99.3c6.8,28.7,26.6,52.4,59.2,71.2c22.5,12.9,43.4,19.9,62.9,20.8
		c19.5,0.9,37.9-4.2,55.3-15.3c17.4-11.2,31.3-25.9,41.8-44.1c11.6-20.1,17.9-39,18.9-56.6c1-17.6-2.3-33.9-9.9-48.8
		c-7.6-14.9-22-33.3-43.2-55.3c-21.1-22-33.1-38.3-35.7-48.9c-2.1-8.3-1-16.3,3.4-23.8c4.8-8.2,11.3-13.2,19.7-15
		c13-2.7,27.1,0.3,42.2,9c14.7,8.5,23.7,18.4,26.9,29.8c3.2,11.4,1.2,25.9-5.9,43.5l53.8,27.3c16-29.7,20.8-58,14.5-84.9
		c-6.3-26.9-25.7-49.8-58.1-68.5c-19.9-11.4-39-17.5-57.2-18.2c-18.3-0.7-35.2,3.8-50.8,13.6c-15.6,9.8-28,22.8-37.4,39
		c-14.5,25.2-18.9,51.1-13.1,77.7c4.1,18.9,17.7,40.7,40.8,65.4c17.9,19.2,29.2,31.8,33.8,38c6.7,9.1,10.3,17.2,10.8,24.6
		c0.5,7.3-1.3,14.8-5.7,22.3c-6.7,11.7-16.9,19.5-30.5,23.3c-13.6,3.8-28.8,0.9-45.6-8.8c-15.9-9.1-25.6-21.3-29.3-36.5
		c-3.7-15.2-1-34.2,8-56.9L2654.1,643.6z"/>
	<path class="st3" d="M641.3,2906.9c9.9-16,13.7-33.3,11.3-52c12.4,7.6,26.9,11.1,43.4,10.6c16.5-0.5,32.6-4.9,48.3-13.2
		c14.5-7.7,26.1-17.2,35-28.6c8.9-11.4,14.7-22.9,17.6-34.4c2.8-11.6,2.7-22.9-0.3-34c-3.1-11.1-10-26.8-20.7-47l-54.2-102.2
		l-334.8,177.4l46.1,87c17.7,32.7,29.5,53.1,35.3,61.1c9.2,12.7,20.7,21.4,34.2,26.2c13.6,4.8,29,6.1,46.2,3.9
		c17.3-2.2,33.5-7.4,48.7-15.4C616.8,2936,631.4,2922.9,641.3,2906.9z M693.3,2687.2l15.7,29.7c12.9,24.3,20.3,39.2,22.2,44.7
		c3.2,9.3,2.7,17.9-1.5,25.7c-4.2,7.8-11.4,14.4-21.8,19.9c-10.8,5.7-20.9,7.8-30.2,6.3c-9.3-1.6-17-6.4-23-14.5
		c-3.3-4.5-10.4-16.8-21-36.9l-17.9-33.8L693.3,2687.2z M572.4,2891.2c-11.9,6.3-22.6,8.9-32.3,7.8c-9.6-1.1-17.4-5-23.3-11.7
		c-4-4.3-11-15.7-20.8-34.3l-25.3-47.8l89.5-47.4l22.1,41.7c12.4,23.5,18.9,39.6,19.5,48.3c0.5,8.7-1.7,16.8-6.8,24.2
		C589.9,2879.5,582.4,2885.8,572.4,2891.2z"/>
	<path class="st3" d="M864.5,3138.2c22.4-2,44.6-12.1,66.4-30.2c17.2-14.3,29.9-30.2,37.9-47.8c8-17.6,10.2-34,6.5-49.1
		c-3.7-15.1-15.4-34.6-35.2-58.4l-78.5-94.7L570,3099.8l37.3,45l121.8-101l7.6,9.1c8.6,10.3,13.7,18.8,15.5,25.4
		c1.8,6.6,1.4,14.4-0.9,23.6c-2.4,9.1-10.1,28.9-23.2,59.3l-36.5,85.1l44.6,53.8l34.3-74.4c13.8-29.5,22.5-51.2,26.1-64.9
		c3.6-13.7,5.1-28.5,4.5-44.4C820.9,3132.9,842.1,3140.2,864.5,3138.2z M775.6,3005.2l74-61.4l29.1,35.1
		c15.1,18.2,23.9,29.5,26.2,33.7c4.5,8.6,5.3,17.4,2.6,26.4c-2.7,9-9,17.6-18.8,25.7c-8.8,7.3-17.3,11.8-25.7,13.6
		c-8.4,1.8-16,1-22.8-2.4c-6.8-3.4-19.2-15.9-37.1-37.5L775.6,3005.2z"/>
	<polygon class="st3" points="1168.9,3172.7 1021.5,3244.9 1065.4,3086.2 1012.9,3042.3 953.5,3278.6 851.2,3401 895.9,3438.3 
		997.8,3316.4 1218.5,3216.8 1219.5,3215 	"/>
	<polygon class="st3" points="1420,3327.7 1220.3,3213.6 1219.5,3215 1220.5,3215.9 1218.5,3216.8 1188.5,3269.2 1263.1,3311.9 
		1106.8,3585.1 1157.5,3614.1 1313.8,3340.9 1388.2,3383.4 	"/>
	<polygon class="st3" points="1219.5,3215 1218.5,3216.8 1220.5,3215.9 	"/>
	<polygon class="st3" points="1626.9,3471 1648.3,3410.6 1446.1,3338.8 1319.4,3695.9 1526.8,3769.5 1548.2,3709.3 1395.8,3655.3 
		1430.3,3558.1 1567.2,3606.7 1588.6,3546.5 1451.6,3497.9 1479.7,3418.7 	"/>
	<polygon class="st3" points="1631.8,3794.5 1689.4,3804 1715.5,3645.1 1834.7,3664.7 1845.1,3601.4 1725.9,3581.8 1740.4,3493.3 
		1878.5,3516 1888.9,3452.8 1693.1,3420.6 	"/>
	<path class="st3" d="M2162.6,3496.1c-26.7-33.8-61.3-50.1-103.9-48.8c-23.5,0.7-44.2,6.4-61.9,16.9c-13.3,7.8-25.4,19.6-36.3,35.3
		c-10.9,15.7-19.4,33.3-25.3,52.7c-8,26.5-11.4,59-10.2,97.5c1.9,60.3,16,107.2,42.5,140.8c26.4,33.6,61.2,49.7,104.2,48.4
		c42.5-1.3,75.9-19.6,100.2-54.9c24.3-35.3,35.6-83.5,33.7-144.7C2203.5,3577.6,2189.2,3529.9,2162.6,3496.1z M2125.6,3738.8
		c-14.3,22.4-33,34-56.3,34.7c-23.3,0.7-42.8-9.8-58.6-31.4c-15.8-21.7-24.4-53.9-25.7-96.8c-1.3-43.6,5-76.4,19.1-98.5
		c14.1-22.1,33.1-33.5,57.2-34.2c24.1-0.7,43.7,9.3,58.9,30.2c15.2,20.9,23.5,53.1,24.8,96.5
		C2146.3,3683.2,2139.9,3716.4,2125.6,3738.8z"/>
	<path class="st3" d="M2488.5,3630.1c-10.8-9.2-23.5-16.9-38.1-23.2c23.5-10.9,39.1-26.8,47-47.9c7.9-21.1,8.3-45.4,1.4-73
		c-5.5-21.7-14.4-40-26.8-54.8c-12.4-14.8-26.2-23.8-41.5-27c-15.3-3.2-37.9-1-67.9,6.5l-119.3,30l92.4,367.5l56.7-14.2l-38.6-153.4
		l11.5-2.9c13-3.3,22.9-4.3,29.6-3c6.7,1.3,13.6,4.9,20.9,11c7.2,6.1,21.7,21.6,43.4,46.5l61.1,69.7l67.8-17l-52.3-63.1
		C2515.1,3656.5,2499.3,3639.3,2488.5,3630.1z M2442.8,3534.5c-2,8.3-6,14.8-12,19.5c-6,4.7-22.6,10.5-49.8,17.3l-41.9,10.5
		l-23.4-93.2l44.2-11.1c23-5.8,36.9-8.8,41.7-9.1c9.7-0.3,18,2.7,25,9c7,6.3,12,15.7,15.1,28
		C2444.4,3516.5,2444.8,3526.2,2442.8,3534.5z"/>
	<path class="st3" d="M2857.7,3500.4c-9.6-19.7-22.2-34.7-37.8-45.1c-15.6-10.4-32.8-14.8-51.6-13.1c8-12.1,12-26.5,12.1-43
		c0.1-16.5-3.8-32.8-11.6-48.7c-7.2-14.7-16.3-26.7-27.4-36c-11.1-9.3-22.4-15.5-33.8-18.7c-11.5-3.2-22.8-3.5-34-0.8
		c-11.2,2.7-27.1,9-47.7,19.1l-104,50.7l166,340.6l88.5-43.2c33.3-16.6,54.1-27.7,62.2-33.2c13-8.8,22.1-19.9,27.4-33.3
		c5.3-13.4,7.1-28.7,5.4-46.1C2869.8,3532.2,2865.2,3515.8,2857.7,3500.4z M2602,3395.8l30.2-14.7c24.7-12,39.9-18.9,45.5-20.7
		c9.4-2.9,18-2.1,25.6,2.3c7.6,4.4,14,11.9,19.2,22.4c5.4,11,7.1,21.1,5.2,30.4c-1.9,9.2-7,16.8-15.3,22.5
		c-4.6,3.2-17.1,9.8-37.6,19.8l-34.4,16.8L2602,3395.8z M2808.5,3556.1c-1.4,9.6-5.5,17.2-12.5,22.9c-4.4,3.9-16.1,10.4-35,19.6
		l-48.6,23.7l-44.4-91.1l42.4-20.7c23.9-11.6,40.2-17.6,49-17.8c8.7-0.2,16.7,2.3,24,7.6c7.3,5.3,13.4,13,18.4,23.3
		C2807.7,3535.6,2809.9,3546.5,2808.5,3556.1z"/>
	<path class="st3" d="M3137.5,3328.9c-9-16.8-27.4-43.2-55.3-79.1l-121.8-157.4l-46.2,35.8l128.3,165.8
		c18.3,23.7,30.8,41.2,37.4,52.5c6.6,11.3,9.2,23,8,35.2c-1.2,12.2-8.4,23.3-21.5,33.5c-12.9,10-26,14.2-39.1,12.5
		c-13.2-1.7-25.5-7.9-37-18.6c-7-6.7-20.5-23-40.5-48.7l-125.6-162.3l-46.2,35.8l123.7,159.8c25.9,33.5,47.1,57.7,63.4,72.5
		c11,10,23.9,17.7,38.7,23.2c14.7,5.5,30.3,7.2,46.7,5c16.4-2.1,35.5-11.7,57.4-28.6c18.1-14,30.4-28.4,37-43.2
		c6.5-14.8,9.2-29.8,8-45.3C3151.6,3361.8,3146.5,3345.7,3137.5,3328.9z"/>
	<polygon class="st3" points="3116.9,2919.1 3309.1,3083.7 3039.9,3009.1 3002.9,3052.3 3290.8,3298.7 3326.1,3257.4 3138.4,3096.8 
		3401.9,3168.8 3440.1,3124.3 3152.2,2877.9 	"/>
	<path class="st3" d="M3321.5,2670.5c-20.5,2.6-37.7,9.7-51.6,21.4c-10.3,8.8-21.3,23.7-32.9,44.8l-51.5,93.6l332,182.5l53-96.4
		c10.4-18.9,16.4-35.3,17.9-49.2c2-18.6-0.3-35.4-6.7-50.6c-8.5-20-23.1-39.8-43.7-59.4c-16.9-16.1-39.1-31.6-66.4-46.6
		c-31.1-17.1-58.8-28.7-83-34.8C3364.4,2669.7,3342,2667.9,3321.5,2670.5z M3377.7,2734.7c15.6,4.1,36.3,13.2,62,27.3
		c25.7,14.1,45,27,58,38.6c13,11.6,21.2,22,24.7,31c3.5,9,4.3,18.5,2.5,28.3c-1.4,7.5-6,18.4-13.9,32.7l-21,38.2l-219.9-120.9
		l12.6-23c11.5-20.9,20.2-34.3,26.3-40.3c8-8.1,17.5-13.1,28.7-15.1C3348.6,2729.5,3362,2730.6,3377.7,2734.7z"/>
</g>
<path class="st3" d="M488.2,1692.7c63.4,0,114.8-51.4,114.8-114.8c0-63.4-51.4-114.8-114.8-114.8s-114.8,51.4-114.8,114.8
	C373.4,1641.3,424.8,1692.7,488.2,1692.7z"/>
<path class="st3" d="M3531.6,1692.7c63.4,0,114.8-51.4,114.8-114.8c0-63.4-51.4-114.8-114.8-114.8c-63.4,0-114.8,51.4-114.8,114.8
	C3416.8,1641.3,3468.2,1692.7,3531.6,1692.7z"/>
</svg>
